<svg width="24" height="24" viewBox="0 0 400 400" fill="none" xmlns="http://www.w3.org/2000/svg">
  <path fill-rule="evenodd" clip-rule="evenodd" d="
    M200 40
    C200 40 150 48 115 75
    L78 25
    C40 45 35 100 60 135
    L95 160
    C60 195 45 245 50 285
    L28 302
    L72 340
    L50 380
    L118 350
    L150 395
    L188 342
    L200 390
    L212 342
    L250 395
    L282 350
    L350 380
    L328 340
    L372 302
    L350 285
    C355 245 340 195 305 160
    L340 135
    C365 100 360 45 322 25
    L285 75
    C250 48 200 40 200 40
    Z
    M125 180
    C142 158 178 162 200 192
    L160 260
    L105 225
    C92 202 108 182 125 180
    Z
    M275 180
    C258 158 222 162 200 192
    L240 260
    L295 225
    C308 202 292 182 275 180
    Z
    M200 205
    L168 270
    L200 365
    L232 270
    Z
  " fill="currentColor"/>
</svg>
