<svg width="400" height="600" viewBox="0 0 400 600" xmlns="http://www.w3.org/2000/svg">
  <defs>
    <pattern id="stripes5" x="0" y="0" width="28.28" height="28.28" patternUnits="userSpaceOnUse" patternTransform="rotate(45)">
      <rect width="14.14" height="28.28" fill="#2ECC71"/>
      <rect x="14.14" width="14.14" height="28.28" fill="#0a0a09"/>
    </pattern>
    <linearGradient id="receiptGrad" x1="0%" y1="0%" x2="0%" y2="100%">
      <stop offset="0%" style="stop-color:#FFFFFF"/>
      <stop offset="100%" style="stop-color:#F0EEE6"/>
    </linearGradient>
  </defs>

  <!-- Background - clean, trustworthy -->
  <rect width="400" height="600" fill="#FAF9F5"/>

  <!-- Border -->
  <rect x="1.5" y="1.5" width="397" height="597" fill="none" stroke="#2ECC71" stroke-width="3"/>

  <!-- Header -->
  <rect x="0" y="0" width="400" height="70" fill="#0a0a09"/>
  <text x="200" y="35" font-family="monospace" font-size="12" fill="rgba(250,249,245,0.5)" text-anchor="middle" letter-spacing="2">VERIFIED ON-CHAIN</text>
  <text x="200" y="58" font-family="monospace" font-size="20" fill="#2ECC71" text-anchor="middle" font-weight="bold">AI SAFETY DONATIONS</text>

  <!-- Phase badge -->
  <rect x="24" y="85" width="70" height="26" fill="rgba(46,204,113,0.2)" stroke="#2ECC71" stroke-width="1"/>
  <text x="59" y="103" font-family="monospace" font-size="11" fill="#2ECC71" text-anchor="middle" font-weight="bold">PHASE 5</text>

  <rect x="104" y="85" width="70" height="26" fill="rgba(94,93,89,0.2)" stroke="#5E5D59" stroke-width="1"/>
  <text x="139" y="103" font-family="monospace" font-size="11" fill="#5E5D59" text-anchor="middle" font-weight="bold">FUTURE</text>

  <!-- Title -->
  <text x="24" y="145" font-family="monospace" font-size="14" fill="#5E5D59">fees fund ai safety.</text>
  <text x="24" y="170" font-family="monospace" font-size="22" fill="#0a0a09" font-weight="bold">on-chain receipts.</text>

  <!-- Receipt box -->
  <rect x="30" y="190" width="340" height="260" fill="url(#receiptGrad)" stroke="#0a0a09" stroke-width="2"/>

  <!-- Receipt header -->
  <text x="200" y="218" font-family="monospace" font-size="14" fill="#0a0a09" text-anchor="middle" font-weight="bold" letter-spacing="3">DONATION RECEIPT</text>
  <line x1="50" y1="230" x2="350" y2="230" stroke="#0a0a09" stroke-width="1" stroke-dasharray="4,2"/>

  <!-- Fee distribution -->
  <text x="50" y="255" font-family="monospace" font-size="11" fill="#5E5D59">FEE DISTRIBUTION</text>

  <!-- Distribution bars -->
  <rect x="50" y="265" width="300" height="20" fill="#E8E6DC" stroke="#0a0a09" stroke-width="1"/>
  <rect x="50" y="265" width="120" height="20" fill="#FF6B35"/>
  <rect x="170" y="265" width="90" height="20" fill="#E74C3C"/>
  <rect x="260" y="265" width="60" height="20" fill="#3498DB"/>
  <rect x="320" y="265" width="30" height="20" fill="#9B59B6"/>

  <text x="50" y="300" font-family="monospace" font-size="9" fill="#FF6B35">40% buyback</text>
  <text x="145" y="300" font-family="monospace" font-size="9" fill="#E74C3C">30% charity</text>
  <text x="235" y="300" font-family="monospace" font-size="9" fill="#3498DB">20% dev</text>
  <text x="305" y="300" font-family="monospace" font-size="9" fill="#9B59B6">10% community</text>

  <line x1="50" y1="315" x2="350" y2="315" stroke="#0a0a09" stroke-width="1" stroke-dasharray="4,2"/>

  <!-- Donation recipients -->
  <text x="50" y="340" font-family="monospace" font-size="11" fill="#5E5D59">VERIFIED RECIPIENTS</text>

  <rect x="50" y="350" width="280" height="35" fill="rgba(46,204,113,0.1)" stroke="#2ECC71" stroke-width="1"/>
  <text x="60" y="365" font-family="monospace" font-size="10" fill="#2ECC71">✓</text>
  <text x="80" y="365" font-family="monospace" font-size="11" fill="#0a0a09" font-weight="bold">MIRI</text>
  <text x="60" y="378" font-family="monospace" font-size="9" fill="#5E5D59">Machine Intelligence Research Institute</text>

  <rect x="50" y="390" width="280" height="35" fill="rgba(46,204,113,0.1)" stroke="#2ECC71" stroke-width="1"/>
  <text x="60" y="405" font-family="monospace" font-size="10" fill="#2ECC71">✓</text>
  <text x="80" y="405" font-family="monospace" font-size="11" fill="#0a0a09" font-weight="bold">FUTURE OF LIFE INSTITUTE</text>
  <text x="60" y="418" font-family="monospace" font-size="9" fill="#5E5D59">AI Safety Research</text>

  <line x1="50" y1="435" x2="350" y2="435" stroke="#0a0a09" stroke-width="1" stroke-dasharray="4,2"/>

  <!-- Verification -->
  <text x="200" y="455" font-family="monospace" font-size="10" fill="#5E5D59" text-anchor="middle" letter-spacing="1">TRANSACTION HASH</text>
  <text x="200" y="472" font-family="monospace" font-size="9" fill="#0a0a09" text-anchor="middle">0x7f3d...coming_soon...9a2f</text>

  <!-- Receipt torn edge -->
  <path d="M30 450 L35 455 L40 450 L45 455 L50 450 L55 455 L60 450 L65 455 L70 450 L75 455 L80 450 L85 455 L90 450 L95 455 L100 450 L105 455 L110 450 L115 455 L120 450 L125 455 L130 450 L135 455 L140 450 L145 455 L150 450 L155 455 L160 450 L165 455 L170 450 L175 455 L180 450 L185 455 L190 450 L195 455 L200 450 L205 455 L210 450 L215 455 L220 450 L225 455 L230 450 L235 455 L240 450 L245 455 L250 450 L255 455 L260 450 L265 455 L270 450 L275 455 L280 450 L285 455 L290 450 L295 455 L300 450 L305 455 L310 450 L315 455 L320 450 L325 455 L330 450 L335 455 L340 450 L345 455 L350 450 L355 455 L360 450 L365 455 L370 450" fill="none" stroke="#E8E6DC" stroke-width="2" opacity="0"/>

  <!-- Community verification -->
  <rect x="30" y="490" width="340" height="55" fill="#0a0a09"/>
  <text x="200" y="512" font-family="monospace" font-size="11" fill="#2ECC71" text-anchor="middle">COMMUNITY VERIFICATION</text>
  <text x="200" y="532" font-family="monospace" font-size="10" fill="rgba(250,249,245,0.7)" text-anchor="middle">stake $CLARP to validate • earn rewards</text>

  <!-- Bottom message -->
  <text x="200" y="570" font-family="monospace" font-size="11" fill="#5E5D59" text-anchor="middle">ai built this. ai detects the scams.</text>
  <text x="200" y="588" font-family="monospace" font-size="13" fill="#2ECC71" text-anchor="middle" font-weight="bold">might as well fund ai safety.</text>

  <!-- Construction stripe at bottom -->
  <rect x="0" y="590" width="400" height="10" fill="url(#stripes5)"/>

  <!-- Clarp mascot -->
  <g transform="translate(330, 85)">
    <rect width="48" height="48" fill="#D97757" stroke="#2ECC71" stroke-width="2"/>
    <g transform="translate(24, 24) scale(0.16) translate(-128, -128)">
      <rect x="28" y="38" width="200" height="120" fill="#0a0a09"/>
      <rect x="8" y="66" width="20" height="30" fill="#0a0a09"/>
      <rect x="228" y="66" width="20" height="30" fill="#0a0a09"/>
      <rect x="64" y="80" width="32" height="48" fill="#D97757"/>
      <rect x="160" y="80" width="32" height="48" fill="#D97757"/>
      <rect x="40" y="158" width="40" height="60" fill="#0a0a09"/>
      <rect x="100" y="158" width="30" height="60" fill="#0a0a09"/>
      <rect x="126" y="158" width="30" height="60" fill="#0a0a09"/>
      <rect x="176" y="158" width="40" height="60" fill="#0a0a09"/>
    </g>
  </g>
</svg>