<svg width="64" height="64" viewBox="0 0 64 64" fill="none" xmlns="http://www.w3.org/2000/svg">
  <!-- Clawd - WAGMI version (on fire, thumbs up) -->

  <!-- Flames behind -->
  <rect x="8" y="8" width="4" height="12" fill="#FF6B35" opacity="0.8"/>
  <rect x="12" y="4" width="4" height="16" fill="#FFD93D" opacity="0.9"/>
  <rect x="16" y="10" width="4" height="10" fill="#E74C3C" opacity="0.7"/>
  <rect x="44" y="6" width="4" height="14" fill="#FFD93D" opacity="0.9"/>
  <rect x="48" y="10" width="4" height="10" fill="#FF6B35" opacity="0.8"/>
  <rect x="52" y="8" width="4" height="12" fill="#E74C3C" opacity="0.7"/>

  <!-- Body -->
  <rect x="12" y="20" width="40" height="24" fill="#D97757"/>

  <!-- Ears -->
  <rect x="12" y="16" width="8" height="8" fill="#D97757"/>
  <rect x="44" y="16" width="8" height="8" fill="#D97757"/>

  <!-- Eyes - determined/smug -->
  <rect x="20" y="28" width="4" height="6" fill="#0a0a09"/>
  <rect x="40" y="28" width="4" height="6" fill="#0a0a09"/>

  <!-- Smirk -->
  <rect x="28" y="38" width="12" height="2" fill="#0a0a09"/>
  <rect x="40" y="36" width="2" height="2" fill="#0a0a09"/>

  <!-- Thumbs up (right side) -->
  <rect x="52" y="28" width="4" height="10" fill="#D97757"/>
  <rect x="52" y="24" width="4" height="6" fill="#D97757"/>

  <!-- Legs -->
  <rect x="16" y="44" width="6" height="12" fill="#D97757"/>
  <rect x="26" y="44" width="6" height="12" fill="#D97757"/>
  <rect x="32" y="44" width="6" height="12" fill="#D97757"/>
  <rect x="42" y="44" width="6" height="12" fill="#D97757"/>
</svg>