<svg width="256" height="256" viewBox="0 0 256 256" fill="none" xmlns="http://www.w3.org/2000/svg">
  <rect width="256" height="256" fill="#0a0a09"/>
  <rect x="72" y="88" width="48" height="32" fill="#D97757"/>
  <rect x="136" y="88" width="48" height="32" fill="#D97757"/>
  <rect x="56" y="96" width="16" height="12" fill="#D97757"/>
  <rect x="184" y="96" width="16" height="12" fill="#D97757"/>
  <rect x="84" y="96" width="8" height="12" fill="#0a0a09"/>
  <rect x="104" y="96" width="8" height="12" fill="#0a0a09"/>
  <rect x="148" y="96" width="8" height="12" fill="#0a0a09"/>
  <rect x="168" y="96" width="8" height="12" fill="#0a0a09"/>
  <rect x="88" y="120" width="80" height="48" fill="#D97757"/>
  <rect x="104" y="136" width="12" height="20" fill="#0a0a09"/>
  <rect x="140" y="136" width="12" height="20" fill="#0a0a09"/>
  <rect x="96" y="168" width="16" height="24" fill="#D97757"/>
  <rect x="120" y="168" width="16" height="24" fill="#D97757"/>
  <rect x="144" y="168" width="16" height="24" fill="#D97757"/>
</svg>
