<svg width="256" height="256" viewBox="0 0 256 256" fill="none" xmlns="http://www.w3.org/2000/svg">
  <!-- Clawd Dark - Glitch Demon (corrupted data, digital horror) -->
  <rect width="256" height="256" fill="#0a0a09"/>

  <!-- Scan line corruption -->
  <rect x="0" y="40" width="256" height="2" fill="#E74C3C" opacity="0.4"/>
  <rect x="0" y="88" width="256" height="3" fill="#00FF00" opacity="0.2"/>
  <rect x="0" y="136" width="256" height="2" fill="#E74C3C" opacity="0.3"/>
  <rect x="0" y="184" width="256" height="4" fill="#FF00FF" opacity="0.2"/>

  <!-- Body - fragmented, glitching -->
  <!-- Main body slice 1 -->
  <rect x="40" y="72" width="80" height="48" fill="#8B4533"/>
  <!-- Main body slice 2 (offset) -->
  <rect x="136" y="76" width="80" height="44" fill="#8B4533"/>
  <!-- Main body slice 3 -->
  <rect x="48" y="120" width="168" height="48" fill="#8B4533"/>

  <!-- Glitch color artifacts -->
  <rect x="32" y="72" width="16" height="48" fill="#00FFFF" opacity="0.5"/>
  <rect x="208" y="76" width="16" height="44" fill="#FF00FF" opacity="0.5"/>

  <!-- Ears - corrupted -->
  <rect x="40" y="56" width="32" height="28" fill="#8B4533"/>
  <rect x="184" y="60" width="32" height="24" fill="#8B4533"/>

  <!-- Eyes - multiple glitched copies -->
  <rect x="64" y="96" width="20" height="28" fill="#E74C3C"/>
  <rect x="68" y="100" width="20" height="28" fill="#00FFFF" opacity="0.6"/>
  <rect x="172" y="96" width="20" height="28" fill="#E74C3C"/>
  <rect x="168" y="100" width="20" height="28" fill="#FF00FF" opacity="0.6"/>

  <!-- Corrupted mouth - jagged -->
  <rect x="96" y="144" width="72" height="8" fill="#E74C3C"/>
  <rect x="88" y="148" width="8" height="8" fill="#E74C3C"/>
  <rect x="168" y="140" width="8" height="8" fill="#E74C3C"/>

  <!-- Legs - scattered/duplicated -->
  <rect x="56" y="168" width="24" height="48" fill="#8B4533"/>
  <rect x="60" y="172" width="24" height="48" fill="#00FFFF" opacity="0.3"/>
  <rect x="100" y="168" width="24" height="44" fill="#8B4533"/>
  <rect x="132" y="170" width="24" height="42" fill="#8B4533"/>
  <rect x="176" y="168" width="24" height="48" fill="#8B4533"/>
  <rect x="172" y="172" width="24" height="48" fill="#FF00FF" opacity="0.3"/>

  <!-- Digital noise -->
  <rect x="24" y="100" width="4" height="4" fill="#00FF00"/>
  <rect x="228" y="120" width="4" height="4" fill="#FF0000"/>
  <rect x="120" y="48" width="4" height="4" fill="#00FFFF"/>
  <rect x="140" y="200" width="4" height="4" fill="#FF00FF"/>
  <rect x="80" y="192" width="4" height="4" fill="#FFFF00"/>
</svg>