<svg width="256" height="256" viewBox="0 0 256 256" fill="none" xmlns="http://www.w3.org/2000/svg">
  <!-- Clawd v9 - Construction/Warnings (hard hat, barriers) -->
  <rect width="256" height="256" fill="white"/>

  <!-- Hard hat -->
  <rect x="56" y="40" width="144" height="24" fill="#FFD93D"/>
  <rect x="72" y="32" width="112" height="16" fill="#FFD93D"/>
  <rect x="104" y="24" width="48" height="12" fill="#FFD93D"/>

  <!-- Body -->
  <rect x="48" y="80" width="160" height="96" fill="#D97757"/>

  <!-- Ears (under hat) -->
  <rect x="48" y="64" width="32" height="32" fill="#D97757"/>
  <rect x="176" y="64" width="32" height="32" fill="#D97757"/>

  <!-- Eyes - focused/working -->
  <rect x="80" y="112" width="16" height="24" fill="#0a0a09"/>
  <rect x="160" y="112" width="16" height="24" fill="#0a0a09"/>

  <!-- Determined mouth -->
  <rect x="112" y="152" width="32" height="8" fill="#0a0a09"/>

  <!-- Legs -->
  <rect x="64" y="176" width="24" height="40" fill="#D97757"/>
  <rect x="104" y="176" width="24" height="40" fill="#D97757"/>
  <rect x="128" y="176" width="24" height="40" fill="#D97757"/>
  <rect x="168" y="176" width="24" height="40" fill="#D97757"/>

  <!-- Construction barriers at feet -->
  <rect x="40" y="216" width="24" height="16" fill="#FF6B35"/>
  <rect x="64" y="216" width="24" height="16" fill="#0a0a09"/>
  <rect x="88" y="216" width="24" height="16" fill="#FF6B35"/>
  <rect x="112" y="216" width="24" height="16" fill="#0a0a09"/>
  <rect x="136" y="216" width="24" height="16" fill="#FF6B35"/>
  <rect x="160" y="216" width="24" height="16" fill="#0a0a09"/>
  <rect x="184" y="216" width="24" height="16" fill="#FF6B35"/>
</svg>