<svg width="256" height="256" viewBox="0 0 256 256" fill="none" xmlns="http://www.w3.org/2000/svg">
  <!-- Clawd v4 - Shrug (arms up, "idk man") -->
  <rect width="256" height="256" fill="white"/>

  <!-- Arms raised -->
  <rect x="16" y="56" width="32" height="24" fill="#D97757"/>
  <rect x="208" y="56" width="32" height="24" fill="#D97757"/>
  <rect x="32" y="80" width="24" height="40" fill="#D97757"/>
  <rect x="200" y="80" width="24" height="40" fill="#D97757"/>

  <!-- Body -->
  <rect x="56" y="88" width="144" height="80" fill="#D97757"/>

  <!-- Ears -->
  <rect x="56" y="72" width="28" height="28" fill="#D97757"/>
  <rect x="172" y="72" width="28" height="28" fill="#D97757"/>

  <!-- Eyes - looking sideways/up -->
  <rect x="80" y="112" width="16" height="24" fill="#0a0a09"/>
  <rect x="160" y="112" width="16" height="24" fill="#0a0a09"/>

  <!-- Eyebrows raised -->
  <rect x="76" y="104" width="24" height="4" fill="#C6613F"/>
  <rect x="156" y="104" width="24" height="4" fill="#C6613F"/>

  <!-- Flat mouth -->
  <rect x="112" y="148" width="32" height="8" fill="#0a0a09"/>

  <!-- Legs -->
  <rect x="72" y="168" width="24" height="48" fill="#D97757"/>
  <rect x="108" y="168" width="24" height="48" fill="#D97757"/>
  <rect x="124" y="168" width="24" height="48" fill="#D97757"/>
  <rect x="160" y="168" width="24" height="48" fill="#D97757"/>
</svg>