<svg width="256" height="256" viewBox="0 0 256 256" fill="none" xmlns="http://www.w3.org/2000/svg">
  <!-- Pixelated - chunky 8x8 grid -->
  <rect width="256" height="256" fill="#0a0a09"/>
  <rect x="88" y="88" width="8" height="8" fill="#D97757"/>
  <rect x="96" y="88" width="8" height="8" fill="#D97757"/>
  <rect x="104" y="88" width="8" height="8" fill="#D97757"/>
  <rect x="112" y="88" width="8" height="8" fill="#D97757"/>
  <rect x="120" y="88" width="8" height="8" fill="#D97757"/>
  <rect x="128" y="88" width="8" height="8" fill="#D97757"/>
  <rect x="136" y="88" width="8" height="8" fill="#D97757"/>
  <rect x="144" y="88" width="8" height="8" fill="#D97757"/>
  <rect x="152" y="88" width="8" height="8" fill="#D97757"/>
  <rect x="160" y="88" width="8" height="8" fill="#D97757"/>
  <rect x="88" y="96" width="8" height="8" fill="#D97757"/>
  <rect x="96" y="96" width="8" height="8" fill="#D97757"/>
  <rect x="104" y="96" width="8" height="8" fill="#0a0a09"/>
  <rect x="112" y="96" width="8" height="8" fill="#D97757"/>
  <rect x="120" y="96" width="8" height="8" fill="#D97757"/>
  <rect x="128" y="96" width="8" height="8" fill="#D97757"/>
  <rect x="136" y="96" width="8" height="8" fill="#0a0a09"/>
  <rect x="144" y="96" width="8" height="8" fill="#D97757"/>
  <rect x="152" y="96" width="8" height="8" fill="#D97757"/>
  <rect x="160" y="96" width="8" height="8" fill="#D97757"/>
  <rect x="72" y="104" width="8" height="8" fill="#D97757"/>
  <rect x="80" y="104" width="8" height="8" fill="#D97757"/>
  <rect x="88" y="104" width="8" height="8" fill="#D97757"/>
  <rect x="96" y="104" width="8" height="8" fill="#D97757"/>
  <rect x="104" y="104" width="8" height="8" fill="#0a0a09"/>
  <rect x="112" y="104" width="8" height="8" fill="#D97757"/>
  <rect x="120" y="104" width="8" height="8" fill="#D97757"/>
  <rect x="128" y="104" width="8" height="8" fill="#D97757"/>
  <rect x="136" y="104" width="8" height="8" fill="#0a0a09"/>
  <rect x="144" y="104" width="8" height="8" fill="#D97757"/>
  <rect x="152" y="104" width="8" height="8" fill="#D97757"/>
  <rect x="160" y="104" width="8" height="8" fill="#D97757"/>
  <rect x="168" y="104" width="8" height="8" fill="#D97757"/>
  <rect x="176" y="104" width="8" height="8" fill="#D97757"/>
  <rect x="88" y="112" width="8" height="8" fill="#D97757"/>
  <rect x="96" y="112" width="8" height="8" fill="#D97757"/>
  <rect x="104" y="112" width="8" height="8" fill="#D97757"/>
  <rect x="112" y="112" width="8" height="8" fill="#D97757"/>
  <rect x="120" y="112" width="8" height="8" fill="#D97757"/>
  <rect x="128" y="112" width="8" height="8" fill="#D97757"/>
  <rect x="136" y="112" width="8" height="8" fill="#D97757"/>
  <rect x="144" y="112" width="8" height="8" fill="#D97757"/>
  <rect x="152" y="112" width="8" height="8" fill="#D97757"/>
  <rect x="160" y="112" width="8" height="8" fill="#D97757"/>
  <rect x="96" y="120" width="8" height="8" fill="#D97757"/>
  <rect x="120" y="120" width="8" height="8" fill="#D97757"/>
  <rect x="144" y="120" width="8" height="8" fill="#D97757"/>
  <rect x="96" y="128" width="8" height="8" fill="#D97757"/>
  <rect x="120" y="128" width="8" height="8" fill="#D97757"/>
  <rect x="144" y="128" width="8" height="8" fill="#D97757"/>
  <rect x="96" y="136" width="8" height="8" fill="#D97757"/>
  <rect x="120" y="136" width="8" height="8" fill="#D97757"/>
  <rect x="144" y="136" width="8" height="8" fill="#D97757"/>
</svg>
