<svg width="256" height="256" viewBox="0 0 256 256" fill="none" xmlns="http://www.w3.org/2000/svg">
  <!-- Double outline -->
  <rect width="256" height="256" fill="#0a0a09"/>
  <rect x="84" y="84" width="88" height="56" fill="none" stroke="#D97757" stroke-width="2"/>
  <rect x="88" y="88" width="80" height="48" fill="none" stroke="#D97757" stroke-width="2"/>
  <rect x="68" y="96" width="20" height="16" fill="none" stroke="#D97757" stroke-width="2"/>
  <rect x="72" y="100" width="16" height="12" fill="none" stroke="#D97757" stroke-width="2"/>
  <rect x="164" y="96" width="20" height="16" fill="none" stroke="#D97757" stroke-width="2"/>
  <rect x="168" y="100" width="16" height="12" fill="none" stroke="#D97757" stroke-width="2"/>
  <rect x="104" y="104" width="12" height="20" fill="#D97757"/>
  <rect x="140" y="104" width="12" height="20" fill="#D97757"/>
  <rect x="92" y="132" width="20" height="32" fill="none" stroke="#D97757" stroke-width="2"/>
  <rect x="96" y="136" width="16" height="24" fill="none" stroke="#D97757" stroke-width="2"/>
  <rect x="116" y="132" width="24" height="32" fill="none" stroke="#D97757" stroke-width="2"/>
  <rect x="120" y="136" width="16" height="24" fill="none" stroke="#D97757" stroke-width="2"/>
  <rect x="140" y="132" width="24" height="32" fill="none" stroke="#D97757" stroke-width="2"/>
  <rect x="144" y="136" width="16" height="24" fill="none" stroke="#D97757" stroke-width="2"/>
</svg>
