<svg width="256" height="256" viewBox="0 0 256 256" fill="none" xmlns="http://www.w3.org/2000/svg">
  <!-- Clawd Melt 01 - Standard melting (base version) -->
  <rect width="256" height="256" fill="white"/>

  <!-- Puddle at bottom -->
  <ellipse cx="128" cy="232" rx="80" ry="16" fill="#D97757" opacity="0.4"/>
  <ellipse cx="128" cy="228" rx="60" ry="12" fill="#D97757" opacity="0.6"/>

  <!-- Body (distorted, melting) -->
  <rect x="48" y="64" width="160" height="80" fill="#D97757"/>

  <!-- Melting drips -->
  <rect x="56" y="144" width="24" height="32" fill="#D97757"/>
  <rect x="96" y="144" width="32" height="48" fill="#D97757"/>
  <rect x="144" y="144" width="24" height="40" fill="#D97757"/>
  <rect x="184" y="144" width="16" height="24" fill="#D97757"/>

  <!-- More drips -->
  <rect x="64" y="176" width="16" height="24" fill="#D97757"/>
  <rect x="104" y="192" width="24" height="32" fill="#D97757"/>
  <rect x="152" y="184" width="16" height="20" fill="#D97757"/>

  <!-- Ears (drooping) -->
  <rect x="40" y="56" width="32" height="24" fill="#D97757"/>
  <rect x="184" y="64" width="32" height="16" fill="#D97757"/>

  <!-- Eyes - X X (dead) -->
  <line x1="72" y1="88" x2="96" y2="112" stroke="#0a0a09" stroke-width="6"/>
  <line x1="96" y1="88" x2="72" y2="112" stroke="#0a0a09" stroke-width="6"/>
  <line x1="160" y1="88" x2="184" y2="112" stroke="#0a0a09" stroke-width="6"/>
  <line x1="184" y1="88" x2="160" y2="112" stroke="#0a0a09" stroke-width="6"/>
</svg>