<svg width="64" height="64" viewBox="0 0 64 64" fill="none" xmlns="http://www.w3.org/2000/svg">
  <!-- Clawd - Dead Eyes (X X) version -->

  <!-- Body -->
  <rect x="12" y="20" width="40" height="24" fill="#D97757"/>

  <!-- Ears -->
  <rect x="12" y="16" width="8" height="8" fill="#D97757"/>
  <rect x="44" y="16" width="8" height="8" fill="#D97757"/>

  <!-- Left eye - X -->
  <rect x="18" y="28" width="2" height="2" fill="#0a0a09"/>
  <rect x="20" y="30" width="2" height="2" fill="#0a0a09"/>
  <rect x="22" y="32" width="2" height="2" fill="#0a0a09"/>
  <rect x="22" y="28" width="2" height="2" fill="#0a0a09"/>
  <rect x="20" y="30" width="2" height="2" fill="#0a0a09"/>
  <rect x="18" y="32" width="2" height="2" fill="#0a0a09"/>

  <!-- Right eye - X -->
  <rect x="40" y="28" width="2" height="2" fill="#0a0a09"/>
  <rect x="42" y="30" width="2" height="2" fill="#0a0a09"/>
  <rect x="44" y="32" width="2" height="2" fill="#0a0a09"/>
  <rect x="44" y="28" width="2" height="2" fill="#0a0a09"/>
  <rect x="42" y="30" width="2" height="2" fill="#0a0a09"/>
  <rect x="40" y="32" width="2" height="2" fill="#0a0a09"/>

  <!-- Legs -->
  <rect x="16" y="44" width="6" height="12" fill="#D97757"/>
  <rect x="26" y="44" width="6" height="12" fill="#D97757"/>
  <rect x="32" y="44" width="6" height="12" fill="#D97757"/>
  <rect x="42" y="44" width="6" height="12" fill="#D97757"/>
</svg>