<svg width="256" height="256" viewBox="0 0 256 256" fill="none" xmlns="http://www.w3.org/2000/svg">
  <!-- Clawd WAGMI - On fire, thumbs up, everything is fine -->
  <rect width="256" height="256" fill="white"/>

  <!-- Flames behind -->
  <rect x="24" y="24" width="16" height="48" fill="#FFD93D" opacity="0.9"/>
  <rect x="40" y="16" width="16" height="56" fill="#FF6B35" opacity="0.85"/>
  <rect x="56" y="32" width="12" height="40" fill="#E74C3C" opacity="0.8"/>

  <rect x="188" y="20" width="16" height="52" fill="#FFD93D" opacity="0.9"/>
  <rect x="204" y="28" width="16" height="44" fill="#FF6B35" opacity="0.85"/>
  <rect x="220" y="16" width="12" height="48" fill="#E74C3C" opacity="0.8"/>

  <!-- More flames on top -->
  <rect x="72" y="40" width="12" height="32" fill="#FFD93D" opacity="0.7"/>
  <rect x="172" y="44" width="12" height="28" fill="#FF6B35" opacity="0.7"/>

  <!-- Body -->
  <rect x="48" y="80" width="160" height="96" fill="#D97757"/>

  <!-- Ears -->
  <rect x="48" y="64" width="32" height="32" fill="#D97757"/>
  <rect x="176" y="64" width="32" height="32" fill="#D97757"/>

  <!-- Eyes - determined/smug -->
  <rect x="80" y="112" width="16" height="24" fill="#0a0a09"/>
  <rect x="160" y="112" width="16" height="24" fill="#0a0a09"/>

  <!-- Smirk -->
  <rect x="112" y="152" width="48" height="8" fill="#0a0a09"/>
  <rect x="160" y="144" width="8" height="8" fill="#0a0a09"/>

  <!-- Thumbs up arm -->
  <rect x="208" y="104" width="20" height="48" fill="#D97757"/>
  <rect x="208" y="80" width="20" height="28" fill="#D97757"/>
  <rect x="212" y="68" width="12" height="16" fill="#D97757"/>

  <!-- Legs -->
  <rect x="64" y="176" width="24" height="48" fill="#D97757"/>
  <rect x="104" y="176" width="24" height="48" fill="#D97757"/>
  <rect x="128" y="176" width="24" height="48" fill="#D97757"/>
  <rect x="168" y="176" width="24" height="48" fill="#D97757"/>
</svg>