<svg width="256" height="256" viewBox="0 0 256 256" fill="none" xmlns="http://www.w3.org/2000/svg">
  <!-- Clawd Melt 12 - Glitch Melt (digital corruption) -->
  <rect width="256" height="256" fill="#0a0a09"/>

  <!-- Scan line -->
  <rect x="0" y="120" width="256" height="2" fill="#00FFFF" opacity="0.3"/>

  <!-- Body (offset glitch) -->
  <rect x="88" y="88" width="80" height="48" fill="#D97757"/>
  <rect x="92" y="92" width="40" height="24" fill="#00FFFF" opacity="0.2"/>
  <rect x="124" y="108" width="40" height="24" fill="#FF00FF" opacity="0.2"/>

  <!-- Ear nubs -->
  <rect x="72" y="100" width="16" height="12" fill="#D97757"/>
  <rect x="168" y="100" width="16" height="12" fill="#D97757"/>

  <!-- Eyes -->
  <rect x="104" y="104" width="12" height="20" fill="#0a0a09"/>
  <rect x="140" y="104" width="12" height="20" fill="#0a0a09"/>
  <!-- Glitch offset eyes -->
  <rect x="106" y="106" width="12" height="20" fill="#00FFFF" opacity="0.3"/>
  <rect x="138" y="102" width="12" height="20" fill="#FF00FF" opacity="0.3"/>

  <!-- Legs with glitch -->
  <rect x="96" y="136" width="16" height="32" fill="#D97757"/>
  <rect x="120" y="136" width="16" height="40" fill="#D97757"/>
  <rect x="144" y="136" width="16" height="36" fill="#D97757"/>

  <!-- Glitch pixels -->
  <rect x="180" y="96" width="8" height="8" fill="#00FFFF"/>
  <rect x="68" y="132" width="8" height="8" fill="#FF00FF"/>
</svg>
