<svg width="256" height="256" viewBox="0 0 256 256" fill="none" xmlns="http://www.w3.org/2000/svg">
  <!-- Clawd Melt 07 - Toxic (green radioactive melt) -->
  <rect width="256" height="256" fill="white"/>

  <!-- Toxic puddle -->
  <ellipse cx="128" cy="232" rx="80" ry="16" fill="#2ECC71" opacity="0.4"/>
  <ellipse cx="128" cy="228" rx="60" ry="12" fill="#2ECC71" opacity="0.6"/>

  <!-- Body melting with green tint -->
  <rect x="48" y="64" width="160" height="80" fill="#8B9A6B"/>

  <!-- Toxic drips -->
  <rect x="56" y="144" width="24" height="32" fill="#6B8B5A"/>
  <rect x="96" y="144" width="32" height="48" fill="#2ECC71"/>
  <rect x="144" y="144" width="24" height="40" fill="#6B8B5A"/>
  <rect x="184" y="144" width="16" height="24" fill="#2ECC71"/>
  <rect x="64" y="176" width="16" height="24" fill="#2ECC71"/>
  <rect x="104" y="192" width="24" height="32" fill="#2ECC71"/>
  <rect x="152" y="184" width="16" height="20" fill="#2ECC71"/>

  <!-- Ears drooping -->
  <rect x="40" y="56" width="32" height="24" fill="#8B9A6B"/>
  <rect x="184" y="64" width="32" height="16" fill="#8B9A6B"/>

  <!-- Eyes - glowing green -->
  <rect x="72" y="88" width="24" height="24" fill="#0a0a09"/>
  <rect x="160" y="88" width="24" height="24" fill="#0a0a09"/>
  <rect x="78" y="94" width="12" height="12" fill="#2ECC71"/>
  <rect x="166" y="94" width="12" height="12" fill="#2ECC71"/>

  <!-- Radioactive symbol hint -->
  <circle cx="128" cy="128" r="12" fill="none" stroke="#2ECC71" stroke-width="2" opacity="0.5"/>
</svg>