<svg width="256" height="256" viewBox="0 0 256 256" fill="none" xmlns="http://www.w3.org/2000/svg">
  <!-- Clawd v2 - Cope (forced smile, sweat, "this is fine") -->
  <rect width="256" height="256" fill="white"/>

  <!-- Body -->
  <rect x="48" y="80" width="160" height="96" fill="#D97757"/>

  <!-- Ears -->
  <rect x="48" y="64" width="32" height="32" fill="#D97757"/>
  <rect x="176" y="64" width="32" height="32" fill="#D97757"/>

  <!-- Eyes - wide, slightly manic -->
  <rect x="72" y="104" width="24" height="32" fill="#0a0a09"/>
  <rect x="160" y="104" width="24" height="32" fill="#0a0a09"/>

  <!-- Eye highlights (cope sparkle) -->
  <rect x="76" y="108" width="8" height="8" fill="#FAF9F5"/>
  <rect x="164" y="108" width="8" height="8" fill="#FAF9F5"/>

  <!-- Forced smile -->
  <rect x="96" y="152" width="64" height="8" fill="#0a0a09"/>
  <rect x="88" y="144" width="8" height="8" fill="#0a0a09"/>
  <rect x="160" y="144" width="8" height="8" fill="#0a0a09"/>

  <!-- Sweat drops -->
  <rect x="204" y="88" width="12" height="24" fill="#87CEEB"/>
  <rect x="208" y="112" width="4" height="8" fill="#87CEEB"/>
  <rect x="216" y="104" width="8" height="16" fill="#87CEEB"/>
  <rect x="220" y="120" width="4" height="4" fill="#87CEEB"/>

  <!-- Legs -->
  <rect x="64" y="176" width="24" height="48" fill="#D97757"/>
  <rect x="104" y="176" width="24" height="48" fill="#D97757"/>
  <rect x="128" y="176" width="24" height="48" fill="#D97757"/>
  <rect x="168" y="176" width="24" height="48" fill="#D97757"/>
</svg>