<svg width="64" height="64" viewBox="0 0 64 64" fill="none" xmlns="http://www.w3.org/2000/svg">
  <!-- Clawd - Error/Warning version -->

  <!-- Warning triangle above head -->
  <polygon points="32,4 40,16 24,16" fill="#FF6B35"/>
  <rect x="30" y="8" width="4" height="4" fill="#0a0a09"/>
  <rect x="30" y="13" width="4" height="2" fill="#0a0a09"/>

  <!-- Body -->
  <rect x="12" y="20" width="40" height="24" fill="#D97757"/>

  <!-- Ears -->
  <rect x="12" y="16" width="8" height="8" fill="#D97757"/>
  <rect x="44" y="16" width="8" height="8" fill="#D97757"/>

  <!-- Eyes - X X (error state) -->
  <path d="M18 28 L24 34 M24 28 L18 34" stroke="#0a0a09" stroke-width="2"/>
  <path d="M40 28 L46 34 M46 28 L40 34" stroke="#0a0a09" stroke-width="2"/>

  <!-- Legs -->
  <rect x="16" y="44" width="6" height="12" fill="#D97757"/>
  <rect x="26" y="44" width="6" height="12" fill="#D97757"/>
  <rect x="32" y="44" width="6" height="12" fill="#D97757"/>
  <rect x="42" y="44" width="6" height="12" fill="#D97757"/>
</svg>