<svg width="256" height="256" viewBox="0 0 256 256" fill="none" xmlns="http://www.w3.org/2000/svg">
  <!-- Clawd Melt 20 - WAGMI Melt (thumbs up while melting, on fire) -->
  <rect width="256" height="256" fill="#0a0a09"/>

  <!-- Body (on fire colors) -->
  <rect x="88" y="88" width="80" height="48" fill="#E74C3C"/>

  <!-- Ear nubs -->
  <rect x="72" y="100" width="16" height="12" fill="#FF6B35"/>
  <rect x="168" y="100" width="16" height="12" fill="#FF6B35"/>

  <!-- Determined eyes -->
  <rect x="104" y="104" width="12" height="20" fill="#0a0a09"/>
  <rect x="140" y="104" width="12" height="20" fill="#0a0a09"/>

  <!-- Thumbs up arm -->
  <rect x="168" y="96" width="24" height="12" fill="#D97757"/>
  <rect x="188" y="84" width="8" height="20" fill="#D97757"/>

  <!-- Fire on top -->
  <rect x="100" y="72" width="8" height="16" fill="#FFD93D"/>
  <rect x="120" y="68" width="8" height="20" fill="#FF6B35"/>
  <rect x="140" y="72" width="8" height="16" fill="#FFD93D"/>

  <!-- Legs (melting but standing) -->
  <rect x="96" y="136" width="16" height="32" fill="#FF6B35"/>
  <rect x="120" y="136" width="16" height="40" fill="#E74C3C"/>
  <rect x="144" y="136" width="16" height="36" fill="#FF6B35"/>

  <!-- Drips -->
  <rect x="128" y="176" width="8" height="16" fill="#FFD93D"/>
</svg>
