<svg width="64" height="64" viewBox="0 0 64 64" fill="none" xmlns="http://www.w3.org/2000/svg">
  <!-- Clawd - Under Construction version -->

  <!-- Hard hat -->
  <rect x="14" y="10" width="36" height="6" fill="#FFD93D"/>
  <rect x="18" y="8" width="28" height="4" fill="#FFD93D"/>

  <!-- Body -->
  <rect x="12" y="20" width="40" height="24" fill="#D97757"/>

  <!-- Ears (partially covered by hat) -->
  <rect x="12" y="16" width="8" height="8" fill="#D97757"/>
  <rect x="44" y="16" width="8" height="8" fill="#D97757"/>

  <!-- Eyes - normal -->
  <rect x="20" y="28" width="4" height="8" fill="#0a0a09"/>
  <rect x="40" y="28" width="4" height="8" fill="#0a0a09"/>

  <!-- Legs -->
  <rect x="16" y="44" width="6" height="12" fill="#D97757"/>
  <rect x="26" y="44" width="6" height="12" fill="#D97757"/>
  <rect x="32" y="44" width="6" height="12" fill="#D97757"/>
  <rect x="42" y="44" width="6" height="12" fill="#D97757"/>

  <!-- Construction barriers at feet -->
  <rect x="12" y="56" width="8" height="4" fill="#FF6B35"/>
  <rect x="20" y="56" width="8" height="4" fill="#0a0a09"/>
  <rect x="28" y="56" width="8" height="4" fill="#FF6B35"/>
  <rect x="36" y="56" width="8" height="4" fill="#0a0a09"/>
  <rect x="44" y="56" width="8" height="4" fill="#FF6B35"/>
</svg>